<mxfile host="app.diagrams.net" modified="2023-09-15T10:21:49.219Z" agent="Mozilla/5.0 (Windows NT 10.0; Win64; x64) AppleWebKit/537.36 (KHTML, like Gecko) Chrome/116.0.0.0 Safari/537.36" etag="aFP5WQqwdSxaRZVUB4DK" version="21.7.5" type="device">
  <diagram name="1 oldal" id="2Sy9OwWs3xkr-B9GVL1H">
    <mxGraphModel dx="1034" dy="744" grid="1" gridSize="10" guides="1" tooltips="1" connect="1" arrows="1" fold="1" page="1" pageScale="1" pageWidth="827" pageHeight="1169" math="0" shadow="0">
      <root>
        <mxCell id="0" />
        <mxCell id="1" parent="0" />
        <mxCell id="ZobYQihw_VipbVPi7Ucg-20" style="edgeStyle=orthogonalEdgeStyle;rounded=0;orthogonalLoop=1;jettySize=auto;html=1;" edge="1" parent="1" source="ZobYQihw_VipbVPi7Ucg-1">
          <mxGeometry relative="1" as="geometry">
            <mxPoint x="440" y="360" as="targetPoint" />
          </mxGeometry>
        </mxCell>
        <mxCell id="ZobYQihw_VipbVPi7Ucg-1" value="Admin.php" style="swimlane;whiteSpace=wrap;html=1;" vertex="1" parent="1">
          <mxGeometry x="480" y="250" width="200" height="200" as="geometry" />
        </mxCell>
        <mxCell id="ZobYQihw_VipbVPi7Ucg-17" value="connection.php" style="text;html=1;align=center;verticalAlign=middle;resizable=0;points=[];autosize=1;strokeColor=none;fillColor=none;" vertex="1" parent="ZobYQihw_VipbVPi7Ucg-1">
          <mxGeometry x="10" y="28" width="100" height="30" as="geometry" />
        </mxCell>
        <mxCell id="ZobYQihw_VipbVPi7Ucg-13" style="edgeStyle=orthogonalEdgeStyle;rounded=0;orthogonalLoop=1;jettySize=auto;html=1;entryX=0.5;entryY=1;entryDx=0;entryDy=0;" edge="1" parent="1" source="ZobYQihw_VipbVPi7Ucg-2" target="ZobYQihw_VipbVPi7Ucg-5">
          <mxGeometry relative="1" as="geometry" />
        </mxCell>
        <mxCell id="ZobYQihw_VipbVPi7Ucg-2" value="login.php" style="swimlane;whiteSpace=wrap;html=1;" vertex="1" parent="1">
          <mxGeometry x="240" y="250" width="200" height="200" as="geometry" />
        </mxCell>
        <mxCell id="ZobYQihw_VipbVPi7Ucg-8" value="Hirszerkesztő.php" style="text;html=1;align=center;verticalAlign=middle;resizable=0;points=[];autosize=1;strokeColor=none;fillColor=none;" vertex="1" parent="ZobYQihw_VipbVPi7Ucg-2">
          <mxGeometry y="28" width="120" height="30" as="geometry" />
        </mxCell>
        <mxCell id="ZobYQihw_VipbVPi7Ucg-9" value="Hírolvasó.php" style="text;html=1;align=center;verticalAlign=middle;resizable=0;points=[];autosize=1;strokeColor=none;fillColor=none;" vertex="1" parent="ZobYQihw_VipbVPi7Ucg-2">
          <mxGeometry y="58" width="100" height="30" as="geometry" />
        </mxCell>
        <mxCell id="ZobYQihw_VipbVPi7Ucg-10" value="Admin.php" style="text;html=1;align=center;verticalAlign=middle;resizable=0;points=[];autosize=1;strokeColor=none;fillColor=none;" vertex="1" parent="ZobYQihw_VipbVPi7Ucg-2">
          <mxGeometry y="88" width="80" height="30" as="geometry" />
        </mxCell>
        <mxCell id="ZobYQihw_VipbVPi7Ucg-14" value="connection.php" style="text;html=1;align=center;verticalAlign=middle;resizable=0;points=[];autosize=1;strokeColor=none;fillColor=none;" vertex="1" parent="ZobYQihw_VipbVPi7Ucg-2">
          <mxGeometry y="118" width="100" height="30" as="geometry" />
        </mxCell>
        <mxCell id="ZobYQihw_VipbVPi7Ucg-21" style="edgeStyle=orthogonalEdgeStyle;rounded=0;orthogonalLoop=1;jettySize=auto;html=1;entryX=0.5;entryY=1;entryDx=0;entryDy=0;" edge="1" parent="1" source="ZobYQihw_VipbVPi7Ucg-3" target="ZobYQihw_VipbVPi7Ucg-2">
          <mxGeometry relative="1" as="geometry" />
        </mxCell>
        <mxCell id="ZobYQihw_VipbVPi7Ucg-3" value="Hírolvasó.php" style="swimlane;whiteSpace=wrap;html=1;" vertex="1" parent="1">
          <mxGeometry x="10" y="490" width="200" height="200" as="geometry" />
        </mxCell>
        <mxCell id="ZobYQihw_VipbVPi7Ucg-16" value="connection.php" style="text;html=1;align=center;verticalAlign=middle;resizable=0;points=[];autosize=1;strokeColor=none;fillColor=none;" vertex="1" parent="ZobYQihw_VipbVPi7Ucg-3">
          <mxGeometry x="10" y="30" width="100" height="30" as="geometry" />
        </mxCell>
        <mxCell id="ZobYQihw_VipbVPi7Ucg-5" value="index.php" style="swimlane;whiteSpace=wrap;html=1;" vertex="1" parent="1">
          <mxGeometry x="240" y="10" width="200" height="200" as="geometry" />
        </mxCell>
        <mxCell id="ZobYQihw_VipbVPi7Ucg-7" value="login.php" style="text;html=1;align=center;verticalAlign=middle;resizable=0;points=[];autosize=1;strokeColor=none;fillColor=none;" vertex="1" parent="ZobYQihw_VipbVPi7Ucg-5">
          <mxGeometry x="10" y="30" width="70" height="30" as="geometry" />
        </mxCell>
        <mxCell id="ZobYQihw_VipbVPi7Ucg-19" style="edgeStyle=orthogonalEdgeStyle;rounded=0;orthogonalLoop=1;jettySize=auto;html=1;" edge="1" parent="1" source="ZobYQihw_VipbVPi7Ucg-6" target="ZobYQihw_VipbVPi7Ucg-8">
          <mxGeometry relative="1" as="geometry" />
        </mxCell>
        <mxCell id="ZobYQihw_VipbVPi7Ucg-6" value="Hirszerkesztő.php" style="swimlane;whiteSpace=wrap;html=1;" vertex="1" parent="1">
          <mxGeometry x="5" y="250" width="195" height="200" as="geometry" />
        </mxCell>
        <mxCell id="ZobYQihw_VipbVPi7Ucg-15" value="connection.php" style="text;html=1;align=center;verticalAlign=middle;resizable=0;points=[];autosize=1;strokeColor=none;fillColor=none;" vertex="1" parent="ZobYQihw_VipbVPi7Ucg-6">
          <mxGeometry x="10" y="28" width="100" height="30" as="geometry" />
        </mxCell>
        <mxCell id="ZobYQihw_VipbVPi7Ucg-18" value="hirszerkesztőÚjHír.php" style="text;html=1;align=center;verticalAlign=middle;resizable=0;points=[];autosize=1;strokeColor=none;fillColor=none;" vertex="1" parent="ZobYQihw_VipbVPi7Ucg-6">
          <mxGeometry x="10" y="58" width="140" height="30" as="geometry" />
        </mxCell>
        <mxCell id="ZobYQihw_VipbVPi7Ucg-22" value="charachterCounter.js" style="text;html=1;align=center;verticalAlign=middle;resizable=0;points=[];autosize=1;strokeColor=none;fillColor=none;" vertex="1" parent="ZobYQihw_VipbVPi7Ucg-6">
          <mxGeometry x="10" y="88" width="130" height="30" as="geometry" />
        </mxCell>
      </root>
    </mxGraphModel>
  </diagram>
</mxfile>
